<svg xmlns="http://www.w3.org/2000/svg" width="140.001" height="40" viewBox="0 0 140.001 40"><g transform="translate(-11860 12214)"><rect width="140" height="40" transform="translate(11860 -12214)" fill="none"/><g transform="translate(20 66)"><path d="M296.247,81.663v1h3.144v4.544h1.6V82.663h3.143v-1Z" transform="translate(11666.229 -12327.916)" fill="#fff"/><path d="M272.91,87.206V81.663h5.815c.633,0,1.588.089,1.588,1.093v1.318a.832.832,0,0,1-.354.776,2.3,2.3,0,0,1-1.235.261h-.88l3.182,2.094h-2.3l-2.75-2.094h-1.508v2.094H272.91Zm1.556-4.58h0v1.551H278c.238,0,.763.013.763-.421v-.682c0-.418-.53-.448-.763-.448Z" transform="translate(11679.808 -12327.916)" fill="#fff" fill-rule="evenodd"/><path d="M247.676,86.178h5.257V82.663h-5.257Zm-1.595-3.2h0c0-1.244.806-1.317,1.674-1.317h5.054c.848,0,1.712.078,1.712,1.317v2.935c0,1.264-.846,1.29-1.712,1.29h-5.054c-.857,0-1.674-.045-1.674-1.29Z" transform="translate(11695.736 -12327.916)" fill="#fff" fill-rule="evenodd"/><path d="M221.735,87.206V81.663h5.807a2.21,2.21,0,0,1,1.194.253.954.954,0,0,1,.4.841v1.226a.825.825,0,0,1-.362.8,2.262,2.262,0,0,1-1.233.262h-4.258v2.16Zm5.13-4.58h-3.582v1.449h3.543a2.426,2.426,0,0,0,.6-.056.475.475,0,0,0,.158-.356v-.588a.478.478,0,0,0-.158-.356,1.372,1.372,0,0,0-.6-.092h.039Z" transform="translate(11710.017 -12327.916)" fill="#fff" fill-rule="evenodd"/><path d="M203.271,82.626h-4.365v1.2h4.22c.854,0,1.745.059,1.745,1.317v.776c0,1.242-.905,1.29-1.745,1.29h-3.951c-.849,0-1.673-.047-1.673-1.29v-.158h1.39v.421h4.587V84.888h-4.3c-.835,0-1.673-.066-1.673-1.291v-.618c0-1.245.806-1.317,1.673-1.317h3.769c.757,0,1.713.053,1.713,1.225v.141l-1.391,0v-.4Z" transform="translate(11724.223 -12327.915)" fill="#fff" fill-rule="evenodd"/><path d="M326.2,82.626h-4.366v1.2h4.219c.854,0,1.746.059,1.746,1.317v.776c0,1.242-.906,1.29-1.746,1.29h-3.95c-.85,0-1.673-.047-1.673-1.29v-.158h1.388v.421h4.589V84.888h-4.3c-.836,0-1.674-.066-1.674-1.291v-.618c0-1.245.806-1.317,1.674-1.317h3.768c.758,0,1.713.053,1.713,1.225v.141l-1.39,0v-.4Z" transform="translate(11652.157 -12327.915)" fill="#fff" fill-rule="evenodd"/><path d="M193.755,28.1h-7.314a2.576,2.576,0,0,0-1.6.513,2.668,2.668,0,0,0-.741,1.142c-.088.228-.088.2-.088-.008V28.1h-4.987c.008.912.019,2.419.019,4.237V51.8c0,1.58.506,4.23,3.927,4.23h1.044V46.854c0-.208,0-.236.087-.009.386,1,1.135,1.2,2.13,1.2h8.063a5.139,5.139,0,0,0,3.679-1.209,5.451,5.451,0,0,0,1.064-3.752v-9.9c0-3.8-1.651-5.084-5.282-5.084m.3,15.833h0c0,1.1-.381,1.695-1.541,1.695h-7.084c-1.232,0-1.418-.582-1.418-1.695v-11.6c0-1.053.251-1.819,1.418-1.819h7.084c1.237,0,1.541.677,1.541,1.819Z" transform="translate(11734.973 -12296.749)" fill="#fff" fill-rule="evenodd"/><path d="M310.431,33.289c0-3.8-1.652-5.084-5.283-5.084H297.9a2.584,2.584,0,0,0-1.6.513,2.663,2.663,0,0,0-.74,1.142c-.088.228-.088.212-.088-.008l.008-1.647h-4.97v19.9h4.966c0-1.412,0-2.431,0-4.238v-11.5c0-1.052.25-1.818,1.416-1.818h7c1.237,0,1.541.677,1.541,1.818V48.105h4.992c0-1.525.009-2.438.007-4.231Z" transform="translate(11669.569 -12296.649)" fill="#fff" fill-rule="evenodd"/><path d="M138.588,48.043H127.841c-3.322,0-4.5-1.776-4.5-4.961v-9.9c0-3.19,1.081-5.086,4.5-5.086h10.747c3.381,0,4.733,1.767,4.733,5.086v9.9c0,3.226-1.4,4.961-4.733,4.961m-.238-4.113h0v-11.6c0-1.142-.3-1.819-1.54-1.819h-7.068c-1.173,0-1.426.758-1.426,1.819v11.6c0,1.122.192,1.694,1.426,1.694h7.068c1.157,0,1.54-.591,1.54-1.694" transform="translate(11767.638 -12296.584)" fill="#fff" fill-rule="evenodd"/><path d="M249.809,36.7v-4.37c0-1.132-.315-1.819-1.54-1.819h-7.083c-1.177,0-1.417.76-1.417,1.819V36.7h10.04Zm4.975,11.341H239.295c-3.323,0-4.506-1.772-4.506-4.961v-9.9c0-3.189,1.1-5.086,4.506-5.086h10.752c3.37,0,4.734,1.774,4.734,5.086V39.12H239.769v4.809c0,1.141.258,1.694,1.5,1.694,3.759,0,6.3.015,10.062,0,1.336-.007,2.155-.028,3.451-.028v2.447Z" transform="translate(11702.256 -12296.584)" fill="#fff" fill-rule="evenodd"/><path d="M48.679,10.608c4.259-1.2,7.219-4.476,6.741-7.241C55.1,1.545,53.332.333,51,.061a10.2,10.2,0,0,0-4.119.417c-4.141,1.09-7.194,4.353-6.623,7.176.464,2.879,4.276,4.128,8.426,2.955" transform="translate(11816.62 -12280.001)" fill="#fec01f"/><path d="M10.78,32.41a92.792,92.792,0,0,0-9.826,4L0,40.423a48.473,48.473,0,0,1,8.759-4.28,5.214,5.214,0,0,0-1.2,3.38,3.221,3.221,0,0,0,1.911,2.814C11.315,43.358,16,43.82,20.744,44.31c4.08.413,8.373.853,11.028,1.767.058.02.113.042.169.064a5.943,5.943,0,0,1,1.146.576,2.531,2.531,0,0,1,.63,2.98,3.5,3.5,0,0,1-.554.771,4.8,4.8,0,0,1-.418.4,7.745,7.745,0,0,1-2.252,1.293c-5.331,2.026-13.366,1.19-18.778,0-1.318-.286-2.618-.623-3.872-1.019l-.952,4.173c9.072,1.606,23.4,2.37,31.205-3.132,3.174-2.21,5.4-5.78,1.961-8.908-1.674-1.488-5.481-2.584-7.563-2.99-3.266-.638-7.931-.961-11.543-1.785-2.432-.559-2.955-1.2-2.961-2.082-.013-1.306,2.113-2.206,4.683-2.959,7.508-2.2,17.135.165,20.76,1.165l.012-.033,1.04-4.556A69.918,69.918,0,0,0,10.78,32.41" transform="translate(11840 -12297.271)" fill="#fec01f"/></g></g></svg>